<?xml version="1.0" encoding="utf-8"?>
<!-- Generator: Adobe Illustrator 27.1.1, SVG Export Plug-In . SVG Version: 6.00 Build 0)  -->
<svg version="1.1" id="Camada_1" xmlns="http://www.w3.org/2000/svg" xmlns:xlink="http://www.w3.org/1999/xlink" x="0px" y="0px"
	 viewBox="0 0 79 99" style="enable-background:new 0 0 79 99;" xml:space="preserve">
<style type="text/css">
	.st0{fill:#07FF00;}
</style>
<g id="QBYThl.tif">
	<g>
		<path class="st0" d="M1.28,50.94c0-0.96,0-1.91,0-2.87c0.09-0.13,0.08-0.27,0.08-0.42c0.05-1.59,0.25-3.16,0.58-4.72
			c1.61-7.75,5.52-14.11,11.67-19.05c5.23-4.21,11.24-6.56,17.95-7.05c3.25-0.24,6.49-0.07,9.67,0.68
			c8.71,2.07,15.52,6.87,20.42,14.37c0.65,0.99,1.2,2.04,1.77,3.13c2.74-3.76,5.45-7.47,8.18-11.2c0.06,0.07,0.11,0.12,0.15,0.17
			c1.67,2.26,3.33,4.53,5,6.79c0.23,0.31,0.21,0.42-0.16,0.57c-4.03,1.65-8.05,3.31-12.07,4.99c-0.13,0.05-0.42,0.04-0.32,0.31
			c0.09,0.23,0.07,0.56,0.48,0.55c0.31-0.01,0.63,0.05,0.95,0.09c1.56,0.17,3.13,0.34,4.69,0.51c1.64,0.18,3.28,0.36,4.92,0.54
			c0.82,0.09,1.63,0.18,2.5,0.28c-1.22,2.78-2.41,5.5-3.61,8.24c-2.91-2.32-5.78-4.6-8.72-6.93c0.04,0.18,0.05,0.27,0.07,0.36
			c0.76,2.54,1.17,5.13,1.27,7.77c0.16,3.98-0.33,7.89-1.61,11.67c-2.08,6.19-5.55,11.43-10.74,15.45
			c-5.14,3.98-10.94,6.38-17.46,6.96c-3.08,0.27-6.14,0.14-9.16-0.44c-6.29-1.21-11.74-4.08-16.38-8.47
			c-3.29-3.11-5.78-6.78-7.55-10.94c-1.3-3.04-2.09-6.2-2.4-9.49C1.38,52.17,1.46,51.54,1.28,50.94z M60.99,50.41
			c-0.02-0.33-0.04-0.83-0.06-1.32c-0.09-2.04-0.45-4.03-1.25-5.92c-1.22-2.9-3.28-4.6-6.56-4.6c-12.74,0.01-25.48,0-38.22,0
			c-2.07,0-3.82,0.7-5.15,2.32c-0.84,1.02-1.38,2.2-1.78,3.45c-0.76,2.38-0.91,4.82-0.87,7.3c0.05,3.01,1.33,5.34,3.88,6.95
			c1.85,1.17,3.84,1.86,6.07,1.73c1.05-0.06,2.09-0.13,3.13-0.29c2.11-0.32,4.15-0.9,6.04-1.89c1.38-0.72,2.64-1.63,4.07-2.27
			c1.73-0.77,3.5-1.12,5.37-0.71c1.38,0.3,2.62,0.94,3.84,1.62c1.48,0.83,2.92,1.73,4.53,2.29c1.93,0.68,3.91,1.04,5.94,1.19
			c1.66,0.12,3.3,0.1,4.88-0.53c2.32-0.92,4.24-2.27,5.35-4.6C60.89,53.67,60.97,52.13,60.99,50.41z"/>
		<path class="st0" d="M50.57,46.66c0.52,0.69,0.86,1.39,1.03,2.18c0.45,2.09-0.09,3.88-1.74,5.26c-1.64,1.38-3.65,1.07-4.96-0.72
			c-1.05-1.43-1.23-3.02-0.81-4.7c0.02-0.06,0.03-0.12,0.04-0.18c0-0.01-0.01-0.03-0.03-0.09c-1.5,0.32-3.02,0.63-4.52,0.97
			c-1,0.22-1,0.23-1.39-0.72c-0.17-0.42-0.31-0.87-0.52-1.27c-0.17-0.33-0.05-0.42,0.24-0.53c4.35-1.68,8.7-3.37,13.05-5.06
			c0.8-0.31,1.6-0.61,2.39-0.93c0.24-0.1,0.34-0.09,0.44,0.19c0.67,1.88,1.37,3.74,2.07,5.67C54.1,46.83,52.37,46.59,50.57,46.66z"
			/>
		<path class="st0" d="M23.94,48.4c0.39,1.32,0.42,2.61-0.11,3.85c-0.56,1.31-1.42,2.33-2.89,2.65c-1.04,0.22-1.9-0.16-2.68-0.79
			c-2.42-1.92-2.3-5.19-0.95-7.12c0.06-0.09,0.11-0.18,0.18-0.3c-0.72,0-1.41-0.03-2.1,0.01c-0.92,0.05-1.85,0.03-2.77,0.06
			c-0.35,0.01-0.35-0.09-0.25-0.38c0.65-1.75,1.29-3.5,1.92-5.26c0.11-0.3,0.21-0.36,0.54-0.23c5.13,2,10.26,3.99,15.4,5.97
			c0.29,0.11,0.35,0.22,0.22,0.51c-0.28,0.6-0.54,1.22-0.76,1.84c-0.11,0.32-0.28,0.36-0.56,0.3c-1.53-0.34-3.06-0.67-4.59-1
			C24.35,48.47,24.16,48.44,23.94,48.4z"/>
	</g>
</g>
<g>
	<g id="rCGGN1.tif">
		<g>
			<path class="st0" d="M180.28,52.15c0.14-0.13,0.28-0.25,0.42-0.38c0.18-0.15,0.27-0.16,0.45-0.01c0.58,0.51,1.08,1.09,1.46,1.76
				c0.52,0.92,0.8,1.92,0.94,2.96c0.1,0.76,0.13,1.52,0.12,2.28c0,0.1,0.03,0.17,0.09,0.25c0.33,0.37,0.65,0.75,0.97,1.13
				c0.06,0.07,0.09,0.15,0.1,0.24c0.14,1.07,0.29,2.15,0.44,3.22c0.01,0.05,0.02,0.11,0.01,0.16c-0.01,0.1-0.06,0.17-0.16,0.21
				c-0.11,0.04-0.2,0.01-0.28-0.06c-0.24-0.2-0.47-0.39-0.71-0.59c-0.39-0.33-0.78-0.65-1.17-0.98c-0.05-0.04-0.1-0.05-0.16-0.05
				c-0.3,0-0.6,0-0.91,0c-0.11,0-0.11,0.03-0.07,0.12c0.23,0.47,0.26,0.95,0.08,1.44c-0.23,0.61-0.5,1.21-0.75,1.81
				c-0.04,0.11-0.12,0.17-0.24,0.17c-0.12,0-0.2-0.07-0.24-0.17c-0.25-0.61-0.53-1.2-0.76-1.82c-0.17-0.48-0.15-0.97,0.08-1.43
				c0.04-0.09,0.04-0.12-0.07-0.12c-0.31,0-0.62,0-0.93,0c-0.07,0-0.12,0.02-0.17,0.06c-0.58,0.49-1.17,0.98-1.76,1.47
				c-0.04,0.03-0.08,0.07-0.12,0.1c-0.09,0.08-0.19,0.1-0.3,0.04c-0.11-0.06-0.14-0.16-0.12-0.28c0.04-0.28,0.08-0.56,0.11-0.83
				c0.11-0.81,0.22-1.62,0.33-2.42c0.01-0.11,0.05-0.2,0.12-0.28c0.34-0.39,0.67-0.79,1.01-1.18c0.06-0.07,0.07-0.13,0.07-0.21
				c-0.02-1.2,0.06-2.39,0.38-3.56C178.88,54.03,179.43,53.01,180.28,52.15z M179.01,55.48c-0.01,0.02-0.01,0.04-0.02,0.07
				c-0.02,0.08-0.04,0.16-0.06,0.24c-0.29,1.42-0.3,2.84-0.17,4.28c0.01,0.11,0.07,0.11,0.15,0.11c1.34,0,2.68,0,4.02,0
				c0.11,0,0.14-0.04,0.15-0.14c0.06-0.65,0.09-1.3,0.08-1.96c-0.02-0.85-0.1-1.69-0.3-2.51c-0.02-0.08-0.04-0.12-0.13-0.12
				c-1.2,0-2.41,0-3.62,0C179.08,55.46,179.05,55.45,179.01,55.48z M181.27,52.58c-0.08-0.08-0.17-0.16-0.24-0.24
				c-0.08-0.09-0.13-0.07-0.21,0c-0.73,0.7-1.27,1.52-1.61,2.48c-0.03,0.1-0.03,0.13,0.09,0.13c1.09,0,2.17,0,3.26,0
				c0.11,0,0.13-0.02,0.09-0.12C182.34,53.98,181.9,53.22,181.27,52.58z M182.98,60.7c-0.02,0-0.05-0.01-0.08-0.01
				c-1.31,0-2.63,0-3.94-0.01c-0.09,0-0.11,0.03-0.09,0.11c0.06,0.3,0.12,0.59,0.17,0.89c0.01,0.07,0.04,0.1,0.11,0.1
				c1.19,0,2.37,0,3.56,0c0.07,0,0.1-0.02,0.11-0.09c0.05-0.3,0.11-0.59,0.17-0.89C182.99,60.77,183,60.74,182.98,60.7z
				 M177.13,63.08c0.04-0.01,0.05-0.01,0.05-0.01c0.44-0.37,0.88-0.73,1.32-1.1c0.04-0.03,0.06-0.07,0.04-0.13
				c-0.16-0.69-0.26-1.39-0.32-2.1c0-0.03,0.01-0.07-0.03-0.08c-0.04-0.01-0.05,0.03-0.07,0.05c-0.2,0.23-0.39,0.46-0.59,0.69
				c-0.05,0.05-0.06,0.11-0.07,0.18c-0.09,0.66-0.18,1.32-0.27,1.98C177.18,62.72,177.15,62.9,177.13,63.08z M183.63,59.67
				c-0.01,0.04-0.01,0.06-0.01,0.07c-0.06,0.71-0.16,1.42-0.32,2.12c-0.02,0.08,0.02,0.11,0.07,0.15c0.4,0.34,0.81,0.68,1.21,1.01
				c0.02,0.02,0.05,0.06,0.09,0.04c0.04-0.02,0.01-0.07,0.01-0.11c-0.11-0.8-0.22-1.61-0.33-2.41c-0.01-0.06-0.03-0.12-0.07-0.16
				c-0.14-0.16-0.27-0.32-0.41-0.48C183.79,59.83,183.74,59.74,183.63,59.67z M181.29,62.49c-0.25-0.25-0.52-0.25-0.7-0.03
				c-0.29,0.35-0.33,0.76-0.19,1.18c0.14,0.4,0.32,0.79,0.48,1.18c0.01,0.02,0.01,0.06,0.05,0.05c0.03,0,0.04-0.03,0.05-0.06
				c0.17-0.4,0.36-0.79,0.49-1.2C181.59,63.19,181.53,62.79,181.29,62.49z"/>
			<path class="st0" d="M181.69,58.13c-0.43,0.42-1.11,0.42-1.54,0c-0.43-0.43-0.42-1.12,0.02-1.55c0.42-0.41,1.11-0.4,1.53,0.02
				C182.12,57.03,182.12,57.71,181.69,58.13z M180.52,56.95c-0.23,0.23-0.23,0.6,0,0.82c0.22,0.22,0.6,0.22,0.82,0
				c0.22-0.22,0.23-0.59,0.01-0.82C181.11,56.72,180.75,56.72,180.52,56.95z"/>
		</g>
	</g>
</g>
</svg>
