<?xml version="1.0" encoding="utf-8"?>
<!-- Generator: Adobe Illustrator 27.1.1, SVG Export Plug-In . SVG Version: 6.00 Build 0)  -->
<svg version="1.1" id="Camada_1" xmlns="http://www.w3.org/2000/svg" xmlns:xlink="http://www.w3.org/1999/xlink" x="0px" y="0px"
	 viewBox="0 0 19.89 38.37" style="enable-background:new 0 0 19.89 38.37;" xml:space="preserve">
<style type="text/css">
	.st0{fill:#FFFFFF;}
</style>
<g id="PO9J56.tif">
	<g>
		<path class="st0" d="M2.71,0c0.95,0,1.91,0,2.86,0c4.77,5.67,9.55,11.33,14.32,17c0,1.33,0,2.67,0,4c-4,5.11-8.01,10.23-12,15.35
			C6.24,38.45,4.16,39,2,37.6c-1.72-1.12-2.57-3-1.59-5.15c0.53-1.18,1.34-2.23,2.11-3.27c2.4-3.27,6.73-6.49,6.75-9.75
			c0.02-3.25-4.07-6.72-6.72-9.74C-0.49,6.22-0.68,3.17,2.71,0z"/>
	</g>
</g>
</svg>
