<?xml version="1.0" encoding="utf-8"?>
<!-- Generator: Adobe Illustrator 27.1.1, SVG Export Plug-In . SVG Version: 6.00 Build 0)  -->
<svg version="1.1" id="Camada_1" xmlns="http://www.w3.org/2000/svg" xmlns:xlink="http://www.w3.org/1999/xlink" x="0px" y="0px"
	 viewBox="0 0 79 99" style="enable-background:new 0 0 79 99;" xml:space="preserve">
<style type="text/css">
	.st0{fill:#07FF00;}
</style>
<g id="rCGGN1.tif">
	<g>
		<path class="st0" d="M35.17,3.93c0.97-0.87,1.92-1.76,2.9-2.61c1.22-1.07,1.88-1.09,3.09-0.04c4.04,3.51,7.48,7.51,10.12,12.18
			c3.6,6.38,5.51,13.29,6.5,20.5c0.72,5.24,0.93,10.51,0.81,15.79c-0.02,0.7,0.21,1.19,0.65,1.7c2.25,2.58,4.47,5.19,6.71,7.78
			c0.41,0.48,0.63,1.01,0.71,1.64c1,7.42,2.01,14.84,3.01,22.26c0.05,0.36,0.11,0.73,0.07,1.09c-0.06,0.68-0.43,1.19-1.08,1.45
			c-0.73,0.29-1.37,0.07-1.94-0.41c-1.63-1.36-3.25-2.72-4.88-4.08c-2.7-2.26-5.4-4.51-8.09-6.77c-0.32-0.27-0.67-0.37-1.08-0.37
			c-2.09,0.01-4.18,0.03-6.28-0.01c-0.79-0.01-0.76,0.21-0.45,0.82c1.62,3.24,1.79,6.6,0.55,9.97c-1.56,4.24-3.44,8.35-5.21,12.5
			c-0.31,0.74-0.85,1.19-1.67,1.18c-0.82,0-1.36-0.45-1.67-1.19c-1.76-4.19-3.68-8.32-5.23-12.59c-1.21-3.34-1.02-6.68,0.58-9.88
			c0.31-0.62,0.28-0.82-0.48-0.81c-2.15,0.03-4.31,0.02-6.46,0c-0.45,0-0.81,0.12-1.15,0.41c-4.04,3.39-8.09,6.76-12.14,10.14
			c-0.28,0.23-0.56,0.46-0.84,0.69c-0.64,0.52-1.34,0.72-2.1,0.28c-0.74-0.43-0.98-1.11-0.86-1.94c0.26-1.92,0.52-3.85,0.78-5.77
			c0.76-5.59,1.52-11.17,2.27-16.76c0.1-0.74,0.33-1.37,0.84-1.96c2.35-2.7,4.65-5.43,7-8.13c0.39-0.45,0.51-0.89,0.5-1.48
			c-0.13-8.31,0.43-16.54,2.64-24.6C25.49,16.92,29.32,9.86,35.17,3.93z M26.39,26.96c-0.04,0.12-0.09,0.29-0.14,0.47
			c-0.13,0.56-0.27,1.12-0.39,1.68c-2,9.8-2.08,19.67-1.16,29.59c0.07,0.76,0.46,0.76,1.02,0.76c9.27-0.01,18.55-0.02,27.82,0.01
			c0.77,0,0.95-0.26,1.02-0.96c0.43-4.5,0.62-9.01,0.52-13.53c-0.13-5.86-0.67-11.67-2.04-17.39c-0.13-0.53-0.26-0.83-0.92-0.83
			c-8.33,0.02-16.67,0.02-25,0.02C26.89,26.79,26.63,26.73,26.39,26.96z M41.98,6.92c-0.56-0.56-1.15-1.08-1.66-1.68
			c-0.54-0.64-0.92-0.49-1.46,0.02c-5.08,4.82-8.8,10.51-11.1,17.13c-0.24,0.68-0.19,0.89,0.59,0.88c7.51-0.02,15.02-0.02,22.53,0
			c0.74,0,0.87-0.15,0.62-0.86C49.44,16.57,46.34,11.36,41.98,6.92z M53.81,63.05C53.65,63.04,53.45,63,53.25,63
			c-9.09-0.01-18.18-0.02-27.26-0.04c-0.59,0-0.74,0.18-0.62,0.74c0.41,2.05,0.8,4.1,1.17,6.16c0.08,0.45,0.25,0.67,0.77,0.67
			c8.21-0.01,16.42-0.01,24.63,0c0.49,0,0.7-0.17,0.78-0.64c0.38-2.06,0.78-4.11,1.17-6.16C53.91,63.52,53.99,63.31,53.81,63.05z
			 M13.38,79.52c0.26-0.06,0.33-0.05,0.37-0.09c3.05-2.54,6.1-5.08,9.16-7.61c0.29-0.24,0.39-0.49,0.3-0.87
			c-1.12-4.79-1.82-9.64-2.2-14.54c-0.02-0.2,0.06-0.47-0.19-0.56c-0.26-0.09-0.35,0.18-0.48,0.33c-1.37,1.58-2.73,3.17-4.11,4.74
			c-0.32,0.37-0.42,0.78-0.48,1.24c-0.61,4.56-1.23,9.13-1.85,13.69C13.71,77.05,13.55,78.24,13.38,79.52z M58.36,55.92
			c-0.06,0.28-0.09,0.39-0.1,0.51c-0.4,4.93-1.08,9.82-2.23,14.63c-0.13,0.52,0.12,0.77,0.46,1.06c2.79,2.33,5.57,4.67,8.36,6.99
			c0.17,0.15,0.37,0.44,0.6,0.31c0.31-0.16,0.1-0.5,0.07-0.74c-0.74-5.55-1.5-11.11-2.25-16.66c-0.06-0.44-0.22-0.8-0.51-1.13
			c-0.96-1.09-1.89-2.21-2.85-3.3C59.43,57.07,59.06,56.44,58.36,55.92z M42.16,75.4c-1.75-1.73-3.59-1.71-4.86-0.18
			c-2.02,2.43-2.3,5.27-1.32,8.14c0.95,2.77,2.2,5.45,3.32,8.16c0.06,0.15,0.08,0.39,0.32,0.38c0.22-0.01,0.26-0.23,0.33-0.39
			c1.16-2.77,2.48-5.47,3.38-8.33C44.24,80.27,43.83,77.5,42.16,75.4z"/>
		<path class="st0" d="M44.92,45.31c-2.95,2.92-7.71,2.92-10.62-0.02c-2.98-3-2.92-7.73,0.14-10.75c2.9-2.86,7.67-2.79,10.55,0.15
			C47.9,37.68,47.87,42.39,44.92,45.31z M36.81,37.14c-1.59,1.58-1.59,4.15-0.01,5.7c1.55,1.51,4.13,1.5,5.66-0.03
			c1.55-1.55,1.57-4.1,0.04-5.65C40.92,35.55,38.41,35.54,36.81,37.14z"/>
	</g>
</g>
</svg>
